<svg width="58" height="60" viewBox="0 0 58 60" fill="none" xmlns="http://www.w3.org/2000/svg">
<path d="M12.6436 53.3955H43.332C47.3197 53.3955 49.3135 52.0934 49.3135 49.4893C49.3135 47.8942 48.8252 46.1934 47.8486 44.3867C46.8721 42.5801 45.4561 40.8792 43.6006 39.2842C41.7614 37.6729 39.5234 36.3626 36.8867 35.3535C34.2663 34.3444 31.304 33.8398 28 33.8398C24.6797 33.8398 21.7012 34.3444 19.0645 35.3535C16.444 36.3626 14.2061 37.6729 12.3506 39.2842C10.5114 40.8792 9.10352 42.5801 8.12695 44.3867C7.15039 46.1934 6.66211 47.8942 6.66211 49.4893C6.66211 52.0934 8.65592 53.3955 12.6436 53.3955ZM11.4961 49.709C11.1706 49.709 10.9346 49.6602 10.7881 49.5625C10.6579 49.4648 10.5928 49.2858 10.5928 49.0254C10.5928 48.0326 10.9671 46.8851 11.7158 45.583C12.4808 44.2646 13.6038 42.9951 15.085 41.7744C16.5661 40.5537 18.389 39.5446 20.5537 38.7471C22.7184 37.9333 25.2005 37.5264 28 37.5264C30.7995 37.5264 33.2734 37.9333 35.4219 38.7471C37.5866 39.5446 39.4095 40.5537 40.8906 41.7744C42.3717 42.9951 43.4867 44.2646 44.2354 45.583C45.0003 46.8851 45.3828 48.0326 45.3828 49.0254C45.3828 49.2858 45.3096 49.4648 45.1631 49.5625C45.0329 49.6602 44.8132 49.709 44.5039 49.709H11.4961ZM28 30.8125C29.9368 30.8125 31.7028 30.2917 33.2979 29.25C34.8929 28.2083 36.1624 26.8249 37.1064 25.0996C38.0667 23.3581 38.5469 21.4375 38.5469 19.3379C38.5469 17.2546 38.0749 15.3747 37.1309 13.6982C36.1868 12.0055 34.9173 10.6628 33.3223 9.66992C31.7272 8.67708 29.9531 8.18066 28 8.18066C26.0632 8.18066 24.2972 8.68522 22.7021 9.69434C21.1071 10.7035 19.8294 12.0544 18.8691 13.7471C17.9251 15.4398 17.4531 17.3197 17.4531 19.3867C17.4531 21.4701 17.9251 23.3825 18.8691 25.124C19.8294 26.8493 21.1071 28.2327 22.7021 29.2744C24.2972 30.2998 26.0632 30.8125 28 30.8125ZM28 27.126C26.8118 27.126 25.7132 26.7842 24.7041 26.1006C23.7113 25.4007 22.9056 24.4648 22.2871 23.293C21.6849 22.1211 21.3838 20.819 21.3838 19.3867C21.3838 17.9707 21.6849 16.7012 22.2871 15.5781C22.8893 14.4388 23.6868 13.5355 24.6797 12.8682C25.6888 12.2008 26.7956 11.8672 28 11.8672C29.2207 11.8672 30.3275 12.1927 31.3203 12.8438C32.3294 13.4948 33.127 14.39 33.7129 15.5293C34.3151 16.6523 34.6162 17.9219 34.6162 19.3379C34.6162 20.7702 34.3151 22.0804 33.7129 23.2686C33.1107 24.4404 32.305 25.3763 31.2959 26.0762C30.3031 26.776 29.2044 27.126 28 27.126Z" fill="#17142C"/>
<line x1="42.773" y1="14.0245" x2="56.0245" y2="8.22699" stroke="black" stroke-width="3" stroke-linecap="round"/>
<line x1="1.5" y1="-1.5" x2="15.9642" y2="-1.5" transform="matrix(0.916157 0.400819 0.400819 -0.916157 42 23)" stroke="black" stroke-width="3" stroke-linecap="round"/>
<line x1="43.5" y1="19.5" x2="53.5" y2="19.5" stroke="black" stroke-width="3" stroke-linecap="round"/>
</svg>
